<svg width="512" height="512" viewBox="0 0 512 512" fill="none" xmlns="http://www.w3.org/2000/svg">
<rect width="512" height="512" fill="#722CD4"/>
<path fill-rule="evenodd" clip-rule="evenodd" d="M150.555 248.157V350.874H125.777V248.157H150.555ZM116.679 362.964H159.649C163.873 362.964 167.318 366.034 167.318 369.798V370.076H109.011V369.798C109.011 366.034 112.456 362.964 116.679 362.964ZM352.818 362.964H395.789C400.013 362.964 403.458 366.034 403.458 369.798V370.076H345.152V369.798C345.152 366.034 348.596 362.964 352.818 362.964ZM274.105 362.964H317.076C321.298 362.964 324.743 366.034 324.743 369.798V370.076H266.44V369.798C266.44 366.034 269.881 362.964 274.105 362.964ZM195.393 362.964H238.364C242.587 362.964 246.032 366.034 246.032 369.798V370.076H187.725V369.798C187.725 366.034 191.17 362.964 195.393 362.964ZM275.194 78.1038H294.204C299.599 78.1038 302.475 77.5102 299.656 81.4717V76.2209L307.229 88.0255C309.839 92.0872 306.476 97.0692 301.348 97.0647L263.02 97.0714V114.498L440.472 184.778V195.024H72V184.778L249.452 114.498V68C266.442 84.6889 271.447 78.1038 275.194 78.1038ZM72 424.158H440.468V410.838C440.468 407.074 437.023 404.003 432.801 404.003H79.6681C75.4449 404.003 72 407.074 72 410.838V424.158ZM99.2125 382.165H413.256C417.48 382.165 420.924 385.237 420.924 389V391.914H91.5444V389C91.5444 385.237 94.9893 382.165 99.2125 382.165ZM420.924 207.115V210.03C420.924 213.792 417.48 216.864 413.257 216.864H99.2125C94.9893 216.864 91.5444 213.794 91.5444 210.03V207.115H420.924ZM403.458 228.955V229.231C403.458 232.995 400.013 236.064 395.789 236.064H352.818C348.594 236.064 345.152 232.995 345.152 229.231V228.955H403.458ZM167.318 228.955V229.231C167.318 232.995 163.873 236.064 159.649 236.064H116.679C112.456 236.064 109.011 232.995 109.011 229.231V228.955H167.318ZM246.032 228.955V229.231C246.032 232.995 242.587 236.064 238.364 236.064H195.393C191.17 236.064 187.725 232.995 187.725 229.231V228.955H246.032ZM324.743 228.955V229.231C324.743 232.995 321.298 236.064 317.076 236.064H274.105C269.881 236.064 266.44 232.995 266.44 229.231V228.955H324.743ZM386.695 248.157V350.874H361.914V248.157H386.695ZM307.98 248.157V350.874H283.199V248.157H307.98ZM229.269 248.157V350.874H204.488V248.157H229.269Z" fill="white"/>
<path d="M318.435 68.1582H250V101.837H318.435V68.1582Z" fill="white"/>
</svg>
