<svg width="512" height="512" viewBox="0 0 512 512" fill="none" xmlns="http://www.w3.org/2000/svg">
<rect width="512" height="512" fill="#722CD4"/>
<path fill-rule="evenodd" clip-rule="evenodd" d="M150.555 258.157V360.874H125.777V258.157H150.555ZM116.679 372.964H159.649C163.873 372.964 167.318 376.034 167.318 379.798V380.076H109.011V379.798C109.011 376.034 112.456 372.964 116.679 372.964ZM352.818 372.964H395.789C400.013 372.964 403.458 376.034 403.458 379.798V380.076H345.152V379.798C345.152 376.034 348.596 372.964 352.818 372.964ZM274.105 372.964H317.076C321.298 372.964 324.743 376.034 324.743 379.798V380.076H266.44V379.798C266.44 376.034 269.881 372.964 274.105 372.964ZM195.393 372.964H238.364C242.587 372.964 246.032 376.034 246.032 379.798V380.076H187.725V379.798C187.725 376.034 191.17 372.964 195.393 372.964ZM275.194 88.1038H294.204C299.599 88.1038 302.475 87.5102 299.656 91.4717V86.2209L307.229 98.0255C309.839 102.087 306.476 107.069 301.348 107.065L263.02 107.071V124.498L440.472 194.778V205.024H72V194.778L249.452 124.498V78C266.442 94.6889 271.447 88.1038 275.194 88.1038ZM72 434.158H440.468V420.838C440.468 417.074 437.023 414.003 432.801 414.003H79.6681C75.4449 414.003 72 417.074 72 420.838V434.158ZM99.2125 392.165H413.256C417.48 392.165 420.924 395.237 420.924 399V401.914H91.5444V399C91.5444 395.237 94.9893 392.165 99.2125 392.165ZM420.924 217.115V220.03C420.924 223.792 417.48 226.864 413.257 226.864H99.2125C94.9893 226.864 91.5444 223.794 91.5444 220.03V217.115H420.924ZM403.458 238.955V239.231C403.458 242.995 400.013 246.064 395.789 246.064H352.818C348.594 246.064 345.152 242.995 345.152 239.231V238.955H403.458ZM167.318 238.955V239.231C167.318 242.995 163.873 246.064 159.649 246.064H116.679C112.456 246.064 109.011 242.995 109.011 239.231V238.955H167.318ZM246.032 238.955V239.231C246.032 242.995 242.587 246.064 238.364 246.064H195.393C191.17 246.064 187.725 242.995 187.725 239.231V238.955H246.032ZM324.743 238.955V239.231C324.743 242.995 321.298 246.064 317.076 246.064H274.105C269.881 246.064 266.44 242.995 266.44 239.231V238.955H324.743ZM386.695 258.157V360.874H361.914V258.157H386.695ZM307.98 258.157V360.874H283.199V258.157H307.98ZM229.269 258.157V360.874H204.488V258.157H229.269Z" fill="white"/>
<path d="M318.435 78.1582H250V111.837H318.435V78.1582Z" fill="white"/>
</svg>
