<svg width="512" height="512" viewBox="0 0 512 512" fill="none" xmlns="http://www.w3.org/2000/svg">
<rect width="512" height="512" fill="#722CD4"/>
<path d="M124.312 409.5V444.926H151.215C157.38 444.926 162.938 444.086 167.889 442.405C172.84 440.636 177.044 438.203 180.5 435.108C184.05 432.012 186.758 428.297 188.627 423.962C190.495 419.628 191.43 414.807 191.43 409.5C191.43 404.193 190.495 399.372 188.627 395.038C186.758 390.703 184.05 386.988 180.5 383.892C177.044 380.797 172.84 378.408 167.889 376.728C162.938 374.959 157.38 374.074 151.215 374.074H111V363.061H152.056C159.902 363.061 167.049 364.211 173.494 366.511C180.032 368.723 185.591 371.863 190.169 375.932C194.839 380.001 198.436 384.91 200.958 390.659C203.573 396.32 204.882 402.601 204.882 409.5C204.882 416.399 203.573 422.724 200.958 428.473C198.436 434.135 194.839 438.999 190.169 443.068C185.591 447.137 180.032 450.322 173.494 452.621C167.049 454.833 159.902 455.939 152.056 455.939H111V409.5H124.312ZM307.615 445.191C302.85 449.172 297.198 452.135 290.66 454.081C284.214 456.027 277.581 457 270.762 457C263.288 457 256.33 455.806 249.884 453.418C243.531 451.029 238.02 447.756 233.35 443.599C228.772 439.353 225.175 434.356 222.561 428.606C219.945 422.768 218.637 416.399 218.637 409.5C218.637 402.601 219.945 396.276 222.561 390.527C225.175 384.689 228.818 379.691 233.49 375.534C238.16 371.288 243.671 367.971 250.024 365.582C256.47 363.194 263.476 362 271.043 362C278.796 362 285.848 363.194 292.201 365.582C298.647 367.882 304.111 371.42 308.595 376.197L300.188 384.158C296.077 380.354 291.687 377.612 287.017 375.932C282.345 374.251 277.208 373.411 271.603 373.411C265.904 373.411 260.626 374.339 255.769 376.197C250.911 377.966 246.708 380.443 243.159 383.627C239.702 386.811 236.993 390.615 235.031 395.038C233.07 399.46 232.089 404.281 232.089 409.5C232.089 414.63 233.07 419.407 235.031 423.83C236.993 428.252 239.702 432.1 243.159 435.373C246.708 438.557 250.865 441.078 255.629 442.936C260.486 444.705 265.764 445.589 271.463 445.589C275.667 445.589 279.73 445.147 283.654 444.263C287.577 443.29 291.313 441.697 294.863 439.486V409.102H307.615V445.191ZM363.307 457C355.741 457 348.594 455.939 341.869 453.816C335.143 451.604 329.818 448.73 325.895 445.191L330.939 435.373C332.807 436.965 334.909 438.425 337.245 439.751C339.673 440.99 342.289 442.095 345.091 443.068C347.894 444.041 350.836 444.793 353.919 445.324C357.002 445.855 360.131 446.12 363.307 446.12C367.603 446.12 371.294 445.766 374.377 445.059C377.46 444.263 379.982 443.201 381.943 441.874C383.998 440.547 385.493 438.999 386.427 437.23C387.361 435.461 387.829 433.56 387.829 431.525C387.829 428.606 386.94 426.262 385.166 424.493C383.485 422.635 381.243 421.087 378.44 419.849C375.73 418.611 372.555 417.594 368.912 416.797C365.361 415.913 361.718 415.028 357.983 414.144C354.339 413.259 350.696 412.242 347.053 411.092C343.502 409.942 340.327 408.394 337.525 406.448C334.815 404.502 332.573 402.114 330.799 399.284C329.118 396.365 328.277 392.738 328.277 388.404C328.277 384.865 329.024 381.504 330.519 378.32C332.012 375.135 334.254 372.349 337.245 369.961C340.327 367.484 344.203 365.538 348.875 364.123C353.639 362.708 359.244 362 365.689 362C371.387 362 376.992 362.752 382.504 364.256C388.015 365.671 392.825 367.705 396.936 370.359L392.593 380.443C388.295 377.878 383.811 375.976 379.141 374.737C374.469 373.499 369.939 372.88 365.549 372.88C361.346 372.88 357.702 373.278 354.62 374.074C351.63 374.87 349.155 375.976 347.193 377.391C345.232 378.718 343.783 380.31 342.85 382.168C341.915 383.937 341.448 385.883 341.448 388.006C341.448 390.925 342.289 393.313 343.97 395.17C345.744 396.939 347.986 398.443 350.696 399.682C353.499 400.832 356.674 401.849 360.225 402.733C363.868 403.529 367.511 404.37 371.154 405.254C374.89 406.139 378.533 407.156 382.084 408.306C385.727 409.456 388.902 411.004 391.612 412.95C394.414 414.807 396.656 417.196 398.338 420.115C400.112 422.945 401 426.483 401 430.729C401 434.267 400.205 437.628 398.618 440.813C397.123 443.997 394.835 446.784 391.752 449.172C388.669 451.56 384.746 453.462 379.982 454.877C375.31 456.292 369.753 457 363.307 457Z" fill="white"/>
<path fill-rule="evenodd" clip-rule="evenodd" d="M178.991 171.313V245.833H161.014V171.313H178.991ZM154.414 254.605H185.589C188.653 254.605 191.152 256.832 191.152 259.562V259.764H148.851V259.562C148.851 256.832 151.35 254.605 154.414 254.605ZM325.731 254.605H356.906C359.97 254.605 362.469 256.832 362.469 259.562V259.764H320.169V259.562C320.169 256.832 322.668 254.605 325.731 254.605ZM268.625 254.605H299.8C302.863 254.605 305.362 256.832 305.362 259.562V259.764H263.064V259.562C263.064 256.832 265.56 254.605 268.625 254.605ZM211.521 254.605H242.695C245.759 254.605 248.258 256.832 248.258 259.562V259.764H205.957V259.562C205.957 256.832 208.457 254.605 211.521 254.605ZM269.415 47.941H283.206C287.12 47.941 289.207 47.5104 287.162 50.3844V46.575L292.656 55.1391C294.55 58.0859 292.11 61.7003 288.389 61.697L260.583 61.7019V74.345L389.322 125.332V132.765H122V125.332L250.739 74.345V40.6108C263.066 52.7185 266.697 47.941 269.415 47.941ZM122 299H389.32V289.336C389.32 286.606 386.821 284.377 383.758 284.377H127.563C124.499 284.377 122 286.606 122 289.336V299ZM141.742 268.534H369.577C372.642 268.534 375.141 270.763 375.141 273.493V275.607H136.179V273.493C136.179 270.763 138.678 268.534 141.742 268.534ZM375.141 141.538V143.652C375.141 146.381 372.642 148.61 369.579 148.61H141.742C138.678 148.61 136.179 146.383 136.179 143.652V141.538H375.141ZM362.469 157.382V157.582C362.469 160.313 359.97 162.54 356.906 162.54H325.731C322.666 162.54 320.169 160.313 320.169 157.582V157.382H362.469ZM191.152 157.382V157.582C191.152 160.313 188.653 162.54 185.589 162.54H154.414C151.35 162.54 148.851 160.313 148.851 157.582V157.382H191.152ZM248.258 157.382V157.582C248.258 160.313 245.759 162.54 242.695 162.54H211.521C208.457 162.54 205.957 160.313 205.957 157.582V157.382H248.258ZM305.362 157.382V157.582C305.362 160.313 302.863 162.54 299.8 162.54H268.625C265.56 162.54 263.064 160.313 263.064 157.582V157.382H305.362ZM350.308 171.313V245.833H332.33V171.313H350.308ZM293.201 171.313V245.833H275.223V171.313H293.201ZM236.097 171.313V245.833H218.119V171.313H236.097Z" fill="white"/>
<path d="M301.135 40H251.486V64.4339H301.135V40Z" fill="white"/>
</svg>
