<svg width="512" height="512" viewBox="0 0 512 512" fill="none" xmlns="http://www.w3.org/2000/svg">
<rect width="512" height="512" fill="#722CD4"/>
<path d="M148.833 357.5V386.214H170.727C175.744 386.214 180.266 385.533 184.296 384.17C188.325 382.737 191.746 380.765 194.559 378.256C197.447 375.746 199.651 372.735 201.173 369.222C202.693 365.709 203.453 361.802 203.453 357.5C203.453 353.198 202.693 349.291 201.173 345.778C199.651 342.265 197.447 339.254 194.559 336.744C191.746 334.235 188.325 332.299 184.296 330.937C180.266 329.503 175.744 328.786 170.727 328.786H138V319.86H171.411C177.796 319.86 183.612 320.792 188.857 322.656C194.178 324.449 198.702 326.994 202.427 330.292C206.228 333.59 209.155 337.569 211.207 342.229C213.335 346.818 214.4 351.908 214.4 357.5C214.4 363.092 213.335 368.218 211.207 372.878C209.155 377.467 206.228 381.41 202.427 384.708C198.702 388.006 194.178 390.587 188.857 392.451C183.612 394.244 177.796 395.14 171.411 395.14H138V357.5H148.833ZM298.004 386.429C294.127 389.655 289.527 392.057 284.206 393.634C278.961 395.211 273.562 396 268.014 396C261.931 396 256.269 395.032 251.023 393.096C245.853 391.161 241.368 388.508 237.568 385.138C233.842 381.697 230.915 377.646 228.787 372.986C226.658 368.254 225.594 363.092 225.594 357.5C225.594 351.908 226.658 346.782 228.787 342.122C230.915 337.39 233.88 333.339 237.682 329.969C241.482 326.528 245.967 323.839 251.137 321.904C256.383 319.968 262.084 319 268.242 319C274.551 319 280.29 319.968 285.46 321.904C290.706 323.768 295.153 326.635 298.802 330.507L291.96 336.959C288.614 333.877 285.042 331.654 281.241 330.292C277.439 328.93 273.259 328.249 268.698 328.249C264.06 328.249 259.765 329.001 255.812 330.507C251.859 331.941 248.438 333.948 245.55 336.529C242.737 339.11 240.532 342.193 238.936 345.778C237.34 349.363 236.541 353.27 236.541 357.5C236.541 361.658 237.34 365.53 238.936 369.115C240.532 372.699 242.737 375.818 245.55 378.471C248.438 381.052 251.821 383.095 255.698 384.601C259.651 386.034 263.946 386.751 268.584 386.751C272.005 386.751 275.312 386.393 278.504 385.676C281.697 384.887 284.737 383.597 287.627 381.804V357.177H298.004V386.429ZM343.326 396C337.168 396 331.353 395.14 325.879 393.419C320.406 391.627 316.073 389.297 312.88 386.429L316.985 378.471C318.505 379.761 320.215 380.944 322.116 382.02C324.092 383.023 326.221 383.919 328.502 384.708C330.783 385.497 333.177 386.106 335.686 386.536C338.195 386.966 340.741 387.182 343.326 387.182C346.822 387.182 349.826 386.895 352.334 386.321C354.843 385.676 356.895 384.816 358.492 383.74C360.164 382.665 361.38 381.41 362.141 379.976C362.9 378.542 363.281 377.001 363.281 375.352C363.281 372.986 362.558 371.086 361.115 369.652C359.746 368.147 357.922 366.892 355.641 365.888C353.436 364.885 350.852 364.06 347.887 363.415C344.998 362.698 342.033 361.981 338.993 361.264C336.028 360.547 333.063 359.723 330.098 358.79C327.209 357.858 324.625 356.604 322.344 355.027C320.139 353.449 318.315 351.513 316.871 349.219C315.503 346.853 314.818 343.914 314.818 340.401C314.818 337.533 315.426 334.809 316.643 332.228C317.858 329.647 319.683 327.388 322.116 325.453C324.625 323.445 327.779 321.868 331.581 320.721C335.458 319.574 340.019 319 345.264 319C349.901 319 354.462 319.609 358.948 320.828C363.433 321.975 367.347 323.624 370.693 325.775L367.158 333.948C363.661 331.869 360.012 330.328 356.211 329.324C352.41 328.32 348.723 327.818 345.15 327.818C341.729 327.818 338.765 328.141 336.256 328.786C333.823 329.432 331.809 330.328 330.212 331.475C328.616 332.55 327.437 333.841 326.678 335.346C325.917 336.78 325.537 338.358 325.537 340.078C325.537 342.444 326.221 344.38 327.59 345.885C329.033 347.319 330.858 348.538 333.063 349.542C335.344 350.474 337.928 351.298 340.817 352.015C343.782 352.661 346.747 353.342 349.712 354.059C352.752 354.776 355.716 355.6 358.606 356.532C361.571 357.464 364.155 358.719 366.36 360.296C368.641 361.802 370.465 363.737 371.833 366.103C373.277 368.398 374 371.265 374 374.707C374 377.575 373.353 380.299 372.061 382.88C370.845 385.461 368.983 387.719 366.474 389.655C363.965 391.591 360.773 393.132 356.895 394.279C353.094 395.426 348.571 396 343.326 396Z" fill="white"/>
<path fill-rule="evenodd" clip-rule="evenodd" d="M200.928 178.302V231.818H188.018V178.302H200.928ZM183.278 238.118H205.666C207.866 238.118 209.661 239.717 209.661 241.678V241.823H179.283V241.678C179.283 239.717 181.078 238.118 183.278 238.118ZM306.309 238.118H328.697C330.898 238.118 332.692 239.717 332.692 241.678V241.823H302.314V241.678C302.314 239.717 304.109 238.118 306.309 238.118ZM265.298 238.118H287.687C289.886 238.118 291.681 239.717 291.681 241.678V241.823H261.305V241.678C261.305 239.717 263.098 238.118 265.298 238.118ZM224.289 238.118H246.677C248.877 238.118 250.672 239.717 250.672 241.678V241.823H220.294V241.678C220.294 239.717 222.089 238.118 224.289 238.118ZM265.866 89.7031H275.77C278.581 89.7031 280.079 89.3938 278.61 91.4578V88.7221L282.556 94.8724C283.916 96.9886 282.164 99.5843 279.492 99.5819L259.523 99.5854V108.665L351.977 145.281V150.619H160V145.281L252.454 108.665V84.439C261.306 93.134 263.914 89.7031 265.866 89.7031ZM160 270H351.975V263.06C351.975 261.099 350.18 259.499 347.98 259.499H163.995C161.795 259.499 160 261.099 160 263.06V270ZM174.178 248.122H337.797C339.998 248.122 341.792 249.722 341.792 251.683V253.201H170.183V251.683C170.183 249.722 171.978 248.122 174.178 248.122ZM341.792 156.919V158.438C341.792 160.398 339.998 161.998 337.798 161.998H174.178C171.978 161.998 170.183 160.399 170.183 158.438V156.919H341.792ZM332.692 168.298V168.442C332.692 170.403 330.898 172.002 328.697 172.002H306.309C304.108 172.002 302.314 170.403 302.314 168.442V168.298H332.692ZM209.661 168.298V168.442C209.661 170.403 207.866 172.002 205.666 172.002H183.278C181.078 172.002 179.283 170.403 179.283 168.442V168.298H209.661ZM250.672 168.298V168.442C250.672 170.403 248.877 172.002 246.677 172.002H224.289C222.089 172.002 220.294 170.403 220.294 168.442V168.298H250.672ZM291.681 168.298V168.442C291.681 170.403 289.886 172.002 287.687 172.002H265.298C263.098 172.002 261.305 170.403 261.305 168.442V168.298H291.681ZM323.959 178.302V231.818H311.048V178.302H323.959ZM282.948 178.302V231.818H270.036V178.302H282.948ZM241.938 178.302V231.818H229.027V178.302H241.938Z" fill="white"/>
<path d="M288.645 84H252.99V101.547H288.645V84Z" fill="white"/>
</svg>
