<svg width="512" height="512" viewBox="0 0 512 512" fill="none" xmlns="http://www.w3.org/2000/svg">
<rect width="512" height="512" fill="#722CD4"/>
<path d="M131.54 369.896V403.112H156.884C162.692 403.112 167.927 402.324 172.592 400.748C177.255 399.089 181.215 396.808 184.472 393.906C187.815 391.003 190.367 387.52 192.128 383.456C193.887 379.392 194.768 374.872 194.768 369.896C194.768 364.92 193.887 360.4 192.128 356.336C190.367 352.272 187.815 348.789 184.472 345.886C181.215 342.983 177.255 340.744 172.592 339.168C167.927 337.51 162.692 336.68 156.884 336.68H119V326.355H157.676C165.068 326.355 171.8 327.433 177.872 329.589C184.031 331.663 189.267 334.607 193.58 338.422C197.979 342.237 201.368 346.84 203.744 352.231C206.207 357.538 207.44 363.427 207.44 369.896C207.44 376.365 206.207 382.295 203.744 387.686C201.368 392.994 197.979 397.555 193.58 401.37C189.267 405.185 184.031 408.171 177.872 410.327C171.8 412.401 165.068 413.437 157.676 413.437H119V369.896H131.54ZM304.218 403.36C299.73 407.093 294.405 409.871 288.246 411.696C282.174 413.52 275.925 414.432 269.502 414.432C262.461 414.432 255.906 413.313 249.834 411.073C243.849 408.834 238.658 405.766 234.258 401.868C229.946 397.887 226.557 393.201 224.094 387.81C221.63 382.336 220.398 376.365 220.398 369.896C220.398 363.427 221.63 357.497 224.094 352.106C226.557 346.632 229.989 341.946 234.39 338.049C238.79 334.068 243.981 330.958 249.966 328.718C256.038 326.479 262.638 325.359 269.766 325.359C277.07 325.359 283.713 326.479 289.698 328.718C295.77 330.875 300.918 334.192 305.142 338.671L297.222 346.135C293.349 342.569 289.214 339.998 284.814 338.422C280.413 336.846 275.574 336.058 270.294 336.058C264.926 336.058 259.953 336.929 255.378 338.671C250.802 340.329 246.842 342.651 243.498 345.637C240.242 348.623 237.69 352.189 235.842 356.336C233.994 360.483 233.07 365.003 233.07 369.896C233.07 374.706 233.994 379.185 235.842 383.331C237.69 387.478 240.242 391.086 243.498 394.155C246.842 397.14 250.758 399.504 255.246 401.246C259.821 402.904 264.794 403.734 270.162 403.734C274.122 403.734 277.95 403.319 281.646 402.49C285.342 401.577 288.861 400.085 292.206 398.011V369.523H304.218V403.36ZM356.682 414.432C349.554 414.432 342.823 413.437 336.487 411.447C330.151 409.373 325.135 406.678 321.439 403.36L326.191 394.155C327.95 395.647 329.93 397.016 332.131 398.26C334.418 399.421 336.883 400.458 339.523 401.37C342.163 402.282 344.935 402.987 347.839 403.485C350.743 403.982 353.69 404.231 356.682 404.231C360.73 404.231 364.206 403.9 367.11 403.236C370.014 402.49 372.39 401.494 374.238 400.25C376.174 399.006 377.582 397.555 378.462 395.896C379.342 394.238 379.782 392.454 379.782 390.547C379.782 387.81 378.946 385.612 377.274 383.953C375.69 382.212 373.578 380.76 370.938 379.599C368.386 378.438 365.394 377.485 361.962 376.738C358.618 375.909 355.186 375.079 351.667 374.25C348.235 373.421 344.803 372.467 341.371 371.389C338.026 370.311 335.035 368.859 332.395 367.035C329.842 365.21 327.73 362.971 326.059 360.317C324.475 357.58 323.683 354.18 323.683 350.116C323.683 346.798 324.386 343.647 325.795 340.661C327.202 337.675 329.314 335.063 332.131 332.824C335.035 330.501 338.686 328.677 343.087 327.35C347.575 326.023 352.854 325.359 358.926 325.359C364.294 325.359 369.574 326.064 374.766 327.474C379.958 328.801 384.49 330.709 388.362 333.197L384.27 342.651C380.222 340.246 375.998 338.463 371.598 337.302C367.198 336.141 362.93 335.56 358.794 335.56C354.834 335.56 351.403 335.934 348.499 336.68C345.682 337.427 343.351 338.463 341.503 339.79C339.655 341.034 338.29 342.527 337.411 344.269C336.53 345.927 336.091 347.752 336.091 349.742C336.091 352.479 336.883 354.719 338.467 356.46C340.138 358.119 342.25 359.529 344.803 360.69C347.442 361.768 350.434 362.722 353.779 363.551C357.21 364.298 360.642 365.086 364.074 365.915C367.594 366.744 371.026 367.698 374.37 368.776C377.802 369.854 380.794 371.306 383.346 373.13C385.986 374.872 388.098 377.111 389.682 379.848C391.353 382.502 392.19 385.82 392.19 389.8C392.19 393.118 391.442 396.269 389.946 399.255C388.538 402.241 386.382 404.853 383.478 407.093C380.574 409.332 376.878 411.115 372.39 412.442C367.99 413.769 362.754 414.432 356.682 414.432Z" fill="white"/>
<path fill-rule="evenodd" clip-rule="evenodd" d="M205.743 180.316V227.03H194.204V180.316H205.743ZM189.968 232.529H209.979C211.946 232.529 213.55 233.925 213.55 235.637V235.763H186.396V235.637C186.396 233.925 188.001 232.529 189.968 232.529ZM299.939 232.529H319.951C321.918 232.529 323.522 233.925 323.522 235.637V235.763H296.368V235.637C296.368 233.925 297.973 232.529 299.939 232.529ZM263.282 232.529H283.294C285.26 232.529 286.864 233.925 286.864 235.637V235.763H259.712V235.637C259.712 233.925 261.315 232.529 263.282 232.529ZM226.625 232.529H246.637C248.604 232.529 250.208 233.925 250.208 235.637V235.763H223.054V235.637C223.054 233.925 224.658 232.529 226.625 232.529ZM263.789 102.978H272.642C275.154 102.978 276.494 102.708 275.181 104.51V102.122L278.708 107.49C279.923 109.337 278.357 111.603 275.969 111.601L258.12 111.604V119.53L340.76 151.492V156.152H169.16V151.492L251.801 119.53V98.3828C259.713 105.973 262.044 102.978 263.789 102.978ZM169.16 260.359H340.758V254.301C340.758 252.59 339.154 251.193 337.188 251.193H172.731C170.764 251.193 169.16 252.59 169.16 254.301V260.359ZM181.833 241.261H328.085C330.052 241.261 331.656 242.658 331.656 244.37V245.695H178.262V244.37C178.262 242.658 179.866 241.261 181.833 241.261ZM331.656 161.651V162.976C331.656 164.687 330.052 166.084 328.086 166.084H181.833C179.866 166.084 178.262 164.688 178.262 162.976V161.651H331.656ZM323.522 171.583V171.709C323.522 173.42 321.918 174.817 319.951 174.817H299.939C297.972 174.817 296.368 173.42 296.368 171.709V171.583H323.522ZM213.55 171.583V171.709C213.55 173.42 211.946 174.817 209.979 174.817H189.968C188.001 174.817 186.396 173.42 186.396 171.709V171.583H213.55ZM250.208 171.583V171.709C250.208 173.42 248.604 174.817 246.637 174.817H226.625C224.658 174.817 223.054 173.42 223.054 171.709V171.583H250.208ZM286.864 171.583V171.709C286.864 173.42 285.26 174.817 283.294 174.817H263.282C261.315 174.817 259.712 173.42 259.712 171.709V171.583H286.864ZM315.716 180.316V227.03H304.175V180.316H315.716ZM279.057 180.316V227.03H267.517V180.316H279.057ZM242.401 180.316V227.03H230.861V180.316H242.401Z" fill="white"/>
<path d="M284.151 98H252.28V113.317H284.151V98Z" fill="white"/>
</svg>
